<?xml version="1.0" standalone="no"?>
<!DOCTYPE svg PUBLIC "-//W3C//DTD SVG 20010904//EN"
 "http://www.w3.org/TR/2001/REC-SVG-20010904/DTD/svg10.dtd">
<svg version="1.0" xmlns="http://www.w3.org/2000/svg"
 width="400.000000pt" height="400.000000pt" viewBox="0 0 400.000000 400.000000"
 preserveAspectRatio="xMidYMid meet">

<g transform="translate(0.000000,400.000000) scale(0.100000,-0.100000)"
fill="#000000" stroke="none">
<path d="M1967 3353 c-28 -94 -117 -307 -138 -328 -6 -6 -8 9 -4 50 l6 60 -54
-56 c-33 -35 -64 -81 -82 -121 l-28 -65 -72 71 c-50 50 -93 82 -145 108 -41
20 -77 35 -78 33 -2 -2 3 -35 12 -74 17 -74 19 -150 6 -191 -7 -21 -8 -18 -9
20 l-1 45 -20 -25 c-41 -54 -100 -179 -119 -257 -28 -108 -28 -261 -2 -365 23
-88 73 -194 132 -278 l42 -60 -25 -32 c-14 -18 -35 -53 -48 -78 -12 -25 -29
-53 -38 -62 -17 -20 -68 -23 -139 -9 -24 5 -43 6 -43 3 0 -7 78 -112 109 -145
43 -48 98 -70 169 -70 l62 0 0 -29 c0 -45 20 -115 61 -213 l38 -90 7 43 c3 23
9 42 13 42 3 0 20 -26 38 -58 17 -31 55 -91 85 -132 l53 -75 3 44 3 44 44 -43
44 -43 10 26 11 27 62 -50 c34 -27 65 -50 68 -50 3 0 34 23 68 50 l62 50 11
-27 10 -26 44 43 44 43 3 -44 3 -44 53 75 c30 41 68 101 85 132 18 32 35 58
38 58 4 0 10 -19 13 -42 l7 -43 38 90 c41 98 61 168 61 213 l0 29 63 0 c70 0
125 22 168 70 31 33 109 138 109 145 0 3 -19 2 -42 -3 -72 -14 -123 -11 -140
9 -9 9 -26 37 -38 62 -13 25 -34 60 -48 78 l-25 32 42 60 c59 84 109 190 132
278 26 104 26 257 -2 365 -19 78 -78 203 -119 257 l-20 25 -1 -45 c-1 -38 -2
-41 -9 -20 -13 41 -11 117 6 191 9 39 14 72 12 74 -1 2 -37 -13 -78 -33 -52
-26 -95 -58 -145 -108 l-72 -71 -28 65 c-18 40 -49 86 -82 121 l-54 56 6 -60
c4 -41 2 -56 -4 -50 -21 21 -110 234 -138 328 -15 53 -30 97 -33 97 -3 0 -18
-44 -33 -97z m-116 -924 c19 -7 60 -29 92 -50 l57 -39 58 39 c73 50 137 69
183 54 l34 -11 -30 -1 -30 -1 33 -22 c37 -26 78 -104 88 -165 7 -43 24 -50 24
-11 0 36 8 16 24 -60 19 -91 13 -112 -20 -73 -23 28 -80 61 -103 61 -7 0 4
-14 24 -31 20 -18 43 -46 52 -63 l16 -31 -24 21 c-60 53 -108 57 -168 14 -23
-17 -53 -35 -67 -40 -22 -9 -26 -7 -39 22 l-13 33 -13 -27 c-9 -21 -9 -33 0
-56 13 -31 77 -99 66 -70 -6 15 -3 15 31 -3 55 -27 87 -24 131 14 37 31 37 31
20 5 -20 -31 -13 -36 15 -11 17 15 18 15 18 -11 0 -29 -32 -100 -51 -111 -6
-4 -24 6 -41 21 l-30 29 16 -32 c21 -42 20 -82 -4 -113 l-20 -25 0 30 c0 24
-14 44 -66 95 l-66 65 36 -66 c31 -57 34 -68 20 -73 -31 -12 -49 -6 -50 17 -2
25 -3 29 -29 120 -11 37 -22 67 -25 67 -3 0 -14 -30 -25 -67 -26 -91 -27 -95
-29 -120 -1 -23 -19 -29 -50 -17 -14 5 -11 16 20 73 l36 66 -66 -65 c-52 -51
-66 -71 -66 -95 l0 -30 -20 25 c-24 31 -25 71 -4 113 l16 32 -30 -29 c-17 -15
-35 -25 -41 -21 -19 11 -51 82 -51 111 0 26 1 26 18 11 28 -25 35 -20 15 11
-17 26 -17 26 20 -5 44 -38 76 -41 131 -14 34 18 37 18 31 3 -11 -28 52 38 65
67 8 20 8 35 0 57 l-12 29 -13 -32 c-13 -30 -17 -32 -39 -23 -14 5 -44 23 -67
40 -60 43 -108 39 -168 -14 l-24 -21 16 31 c9 17 32 45 52 63 20 17 31 31 24
31 -23 0 -80 -33 -103 -61 -33 -39 -39 -18 -20 73 16 76 24 96 24 60 0 -39 17
-32 24 11 10 61 51 139 88 165 l33 22 -30 1 c-26 0 -27 2 -10 9 29 12 67 12
106 -1z m-319 -338 c30 -32 64 -77 75 -99 15 -31 23 -38 31 -30 9 9 12 3 12
-25 0 -20 1 -40 3 -44 1 -5 -8 -9 -20 -11 -18 -3 -24 4 -33 38 -6 23 -27 58
-46 78 l-36 37 6 -60 c7 -64 3 -63 -35 8 -22 42 -44 142 -34 157 11 18 22 11
77 -49z m1010 3 c-3 -49 -27 -114 -57 -157 -15 -21 -15 -19 -9 38 l7 60 -32
-30 c-17 -16 -39 -51 -49 -78 -13 -38 -21 -47 -37 -45 -11 2 -19 6 -17 11 1 4
2 24 2 44 0 28 3 34 12 25 8 -8 16 -1 31 30 25 49 125 160 141 155 7 -3 10
-23 8 -53z m-562 -537 c0 -50 -59 -111 -118 -123 -24 -5 -32 -2 -41 14 -17 32
-14 63 5 55 14 -5 15 -3 5 15 -6 11 -11 35 -11 53 l0 32 27 -24 c22 -20 25
-21 19 -5 -4 11 -9 46 -13 79 l-6 59 66 -68 c37 -38 67 -77 67 -87z m167 95
c-4 -32 -9 -67 -13 -78 -6 -16 -3 -15 19 5 l27 24 0 -32 c0 -18 -5 -42 -11
-53 -10 -18 -9 -20 5 -15 20 8 22 -31 3 -57 -20 -27 -71 -12 -118 35 -57 57
-53 80 24 161 34 36 64 66 66 67 2 1 1 -25 -2 -57z m-262 -262 c-4 -6 11 -10
38 -10 l45 0 -5 -62 c-5 -54 -2 -67 16 -88 l21 -25 21 25 c18 21 21 34 16 88
l-5 62 45 0 c27 0 42 4 38 10 -11 18 22 11 49 -11 32 -25 34 -61 5 -108 -15
-25 -23 -31 -29 -21 -6 9 -9 8 -14 -7 -8 -26 -46 -61 -46 -43 0 7 -14 -6 -30
-28 -39 -54 -61 -54 -100 0 -16 22 -30 35 -30 28 0 -18 -38 17 -46 43 -5 15
-8 16 -14 7 -6 -10 -14 -4 -29 21 -29 47 -27 83 5 108 27 22 60 29 49 11z"/>
<path d="M1924 1545 c-7 -18 3 -35 21 -35 18 0 28 32 13 42 -19 11 -28 10 -34
-7z"/>
<path d="M2042 1552 c-17 -12 -4 -44 17 -40 17 4 22 39 6 45 -5 1 -16 -1 -23
-5z"/>
</g>
</svg>
